<svg xmlns="http://www.w3.org/2000/svg" xmlns:xlink="http://www.w3.org/1999/xlink" aria-hidden="true" width="1024" height="1024" style="-ms-transform: rotate(360deg); -webkit-transform: rotate(360deg); transform: rotate(360deg);" preserveAspectRatio="xMidYMid meet" viewBox="0 0 1024 1024"><path d="M960 576h-86q22-63 22-128h64q26 0 45 19t19 45.5-19 45-45 18.5zm-32-233l-41 24q-13-63-48-119l26-15q23-14 48-7t38.5 30 6.5 48.5-30 38.5zM782 175q-45-45-105-73l4-6q13-23 38.5-30t48.5 6.5 30 38.5-7 48zm9 690q14 23 7 48t-30 38.5-48.5 6.5-38.5-30l-65-111q63-17 116-54zm-279.5 159q-26.5 0-45-18.5T448 960V824q32 8 64 8 30 0 64-6v134q0 27-19 45.5t-45.5 18.5zm.5-640q-33 0-52-27-91 14-147.5 71.5T256 576H64q-26 0-45-18.5t-19-45T19 467t45-19h211L96 343q-23-13-30-38.5t6.5-48.5 38.5-30 48 7l176 102-102-176q-14-23-7-48t30-38.5 48.5-6.5T343 96l105 179V64q0-26 18.5-45T512 0t45.5 19T576 64v256q0 27-19 45.5T512 384zM96 681l161-94q2 68 38 125l-136 79q-23 14-48 7t-38.5-30-6.5-48.5T96 681zm214 51q41 54 101 79l-68 117q-13 23-38.5 30t-48.5-6.5-30-38.5 7-48zm538-98l80 47q23 13 30 38.5t-6.5 48.5-38.5 30-48-7l-98-57q50-44 81-100z" fill="#626262"/></svg>
